<?xml version="1.0" standalone="no"?><!DOCTYPE svg PUBLIC "-//W3C//DTD SVG 1.1//EN" "http://www.w3.org/Graphics/SVG/1.1/DTD/svg11.dtd"><svg t="1588999955730" class="icon" viewBox="0 0 1024 1024" version="1.1" xmlns="http://www.w3.org/2000/svg" p-id="3923" xmlns:xlink="http://www.w3.org/1999/xlink" width="1024" height="1024"><defs><style type="text/css"></style></defs><path d="M492.813474 160.983579l371.550315 371.60421c20.48 20.48 20.749474 53.517474 0.538948 73.781895L498.526316 972.692211a52.170105 52.170105 0 0 1-73.83579-0.538948L53.248 600.602947a52.547368 52.547368 0 0 1-10.617263-59.445894L40.474947 538.947368h3.233685a51.146105 51.146105 0 0 1 9.000421-12.18021l354.088421-354.088421-99.058527-99.166316a34.762105 34.762105 0 0 1-0.377263-49.152 34.762105 34.762105 0 0 1 49.205895 0.377263l136.245895 136.192z m87.417263 185.128421L456.380632 222.261895 139.587368 539.055158h633.586527l-192.943158-192.943158z m319.326316 572.416a89.195789 89.195789 0 0 1-89.519158-88.818526c0-32.714105 29.803789-88.495158 89.465263-167.450948 59.715368 78.955789 89.573053 134.736842 89.573053 167.450948 0 49.044211-40.097684 88.818526-89.519158 88.818526z" fill="#efefef" p-id="3924"></path></svg>